<mxfile host="65bd71144e">
    <diagram id="2CCk5WjFBmDd6t9YELO-" name="Page-1">
        <mxGraphModel dx="1806" dy="2021" grid="1" gridSize="10" guides="1" tooltips="1" connect="1" arrows="1" fold="1" page="1" pageScale="1" pageWidth="850" pageHeight="1100" math="0" shadow="0">
            <root>
                <mxCell id="0"/>
                <mxCell id="1" parent="0"/>
                <mxCell id="209" value="" style="rounded=1;whiteSpace=wrap;html=1;fontSize=40;fontColor=default;strokeColor=#000000;fillColor=none;" vertex="1" parent="1">
                    <mxGeometry x="713.03" y="530" width="701.97" height="350" as="geometry"/>
                </mxCell>
                <mxCell id="208" value="" style="rounded=1;whiteSpace=wrap;html=1;fontSize=40;fontColor=default;strokeColor=#000000;fillColor=none;" vertex="1" parent="1">
                    <mxGeometry x="43.75" y="490" width="626.25" height="350" as="geometry"/>
                </mxCell>
                <mxCell id="207" value="" style="rounded=1;whiteSpace=wrap;html=1;fontSize=40;fontColor=default;strokeColor=#000000;fillColor=none;" vertex="1" parent="1">
                    <mxGeometry x="745" y="180" width="670" height="330" as="geometry"/>
                </mxCell>
                <mxCell id="206" value="" style="rounded=1;whiteSpace=wrap;html=1;fontSize=40;fontColor=default;strokeColor=#000000;fillColor=none;" vertex="1" parent="1">
                    <mxGeometry x="30" y="180" width="670" height="290" as="geometry"/>
                </mxCell>
                <mxCell id="116" value="" style="rounded=1;whiteSpace=wrap;html=1;fontSize=30;fontColor=default;fillColor=none;dashed=1;strokeColor=#009900;" vertex="1" parent="1">
                    <mxGeometry x="220" y="550" width="320" height="110" as="geometry"/>
                </mxCell>
                <mxCell id="81" value="" style="rounded=1;whiteSpace=wrap;html=1;fontSize=30;fontColor=default;fillColor=none;dashed=1;strokeColor=#990000;" vertex="1" parent="1">
                    <mxGeometry x="1080" y="590" width="315" height="110" as="geometry"/>
                </mxCell>
                <mxCell id="71" value="" style="rounded=1;whiteSpace=wrap;html=1;fontSize=30;fontColor=default;fillColor=none;dashed=1;strokeColor=#009900;" vertex="1" parent="1">
                    <mxGeometry x="748.0799999999999" y="590" width="300" height="110" as="geometry"/>
                </mxCell>
                <mxCell id="2" value="1" style="ellipse;whiteSpace=wrap;html=1;aspect=fixed;fontSize=30;" vertex="1" parent="1">
                    <mxGeometry x="961.1599999999999" y="70" width="80" height="80" as="geometry"/>
                </mxCell>
                <mxCell id="3" value="2" style="ellipse;whiteSpace=wrap;html=1;aspect=fixed;fontSize=30;" vertex="1" parent="1">
                    <mxGeometry x="1131.1599999999999" y="70" width="80" height="80" as="geometry"/>
                </mxCell>
                <mxCell id="4" value="2" style="ellipse;whiteSpace=wrap;html=1;aspect=fixed;fontSize=30;" vertex="1" parent="1">
                    <mxGeometry x="1141.1599999999999" y="80" width="60" height="60" as="geometry"/>
                </mxCell>
                <mxCell id="9" value="a" style="edgeStyle=none;html=1;exitX=1;exitY=0.5;exitDx=0;exitDy=0;entryX=0;entryY=0.5;entryDx=0;entryDy=0;endSize=15;endArrow=block;endFill=1;fontSize=30;" edge="1" parent="1" source="6" target="7">
                    <mxGeometry x="-0.1111" y="20" relative="1" as="geometry">
                        <mxPoint as="offset"/>
                    </mxGeometry>
                </mxCell>
                <mxCell id="6" value="" style="ellipse;whiteSpace=wrap;html=1;aspect=fixed;fontSize=30;strokeColor=#009900;" vertex="1" parent="1">
                    <mxGeometry x="961.1599999999999" y="70" width="80" height="80" as="geometry"/>
                </mxCell>
                <mxCell id="7" value="2" style="ellipse;whiteSpace=wrap;html=1;aspect=fixed;fontSize=30;strokeColor=#009900;" vertex="1" parent="1">
                    <mxGeometry x="1131.1599999999999" y="70" width="80" height="80" as="geometry"/>
                </mxCell>
                <mxCell id="8" value="" style="ellipse;whiteSpace=wrap;html=1;aspect=fixed;fontSize=30;strokeColor=#009900;" vertex="1" parent="1">
                    <mxGeometry x="1141.1599999999999" y="80" width="60" height="60" as="geometry"/>
                </mxCell>
                <mxCell id="10" style="edgeStyle=none;html=1;entryX=0;entryY=0.5;entryDx=0;entryDy=0;endSize=15;endArrow=block;endFill=1;" edge="1" parent="1" target="6">
                    <mxGeometry relative="1" as="geometry">
                        <mxPoint x="901.16" y="110" as="sourcePoint"/>
                        <mxPoint x="941.16" y="109.71000000000004" as="targetPoint"/>
                    </mxGeometry>
                </mxCell>
                <mxCell id="20" value="1" style="ellipse;whiteSpace=wrap;html=1;aspect=fixed;fontSize=30;" vertex="1" parent="1">
                    <mxGeometry x="581.16" y="70" width="80" height="80" as="geometry"/>
                </mxCell>
                <mxCell id="21" value="2" style="ellipse;whiteSpace=wrap;html=1;aspect=fixed;fontSize=30;" vertex="1" parent="1">
                    <mxGeometry x="751.16" y="70" width="80" height="80" as="geometry"/>
                </mxCell>
                <mxCell id="22" value="2" style="ellipse;whiteSpace=wrap;html=1;aspect=fixed;fontSize=30;" vertex="1" parent="1">
                    <mxGeometry x="761.16" y="80" width="60" height="60" as="geometry"/>
                </mxCell>
                <mxCell id="23" value="Îµ" style="edgeStyle=none;exitX=1;exitY=0.5;exitDx=0;exitDy=0;entryX=0;entryY=0.5;entryDx=0;entryDy=0;endSize=15;endArrow=block;endFill=1;fontSize=30;labelBackgroundColor=none;fontColor=default;strokeColor=default;" edge="1" parent="1" source="24" target="25">
                    <mxGeometry x="-0.1111" y="20" relative="1" as="geometry">
                        <mxPoint as="offset"/>
                    </mxGeometry>
                </mxCell>
                <mxCell id="24" value="" style="ellipse;whiteSpace=wrap;html=1;aspect=fixed;fontSize=30;strokeColor=#009900;" vertex="1" parent="1">
                    <mxGeometry x="581.16" y="70" width="80" height="80" as="geometry"/>
                </mxCell>
                <mxCell id="25" value="2" style="ellipse;whiteSpace=wrap;html=1;aspect=fixed;fontSize=30;strokeColor=#009900;" vertex="1" parent="1">
                    <mxGeometry x="751.16" y="70" width="80" height="80" as="geometry"/>
                </mxCell>
                <mxCell id="26" value="" style="ellipse;whiteSpace=wrap;html=1;aspect=fixed;fontSize=30;strokeColor=#009900;" vertex="1" parent="1">
                    <mxGeometry x="761.16" y="80" width="60" height="60" as="geometry"/>
                </mxCell>
                <mxCell id="27" style="edgeStyle=none;html=1;entryX=0;entryY=0.5;entryDx=0;entryDy=0;endSize=15;endArrow=block;endFill=1;" edge="1" parent="1" target="24">
                    <mxGeometry relative="1" as="geometry">
                        <mxPoint x="521.1599999999999" y="110" as="sourcePoint"/>
                        <mxPoint x="561.16" y="109.71000000000004" as="targetPoint"/>
                    </mxGeometry>
                </mxCell>
                <mxCell id="28" value="1" style="ellipse;whiteSpace=wrap;html=1;aspect=fixed;fontSize=30;" vertex="1" parent="1">
                    <mxGeometry x="200" y="70" width="80" height="80" as="geometry"/>
                </mxCell>
                <mxCell id="29" value="2" style="ellipse;whiteSpace=wrap;html=1;aspect=fixed;fontSize=30;" vertex="1" parent="1">
                    <mxGeometry x="405" y="70" width="80" height="80" as="geometry"/>
                </mxCell>
                <mxCell id="30" value="2" style="ellipse;whiteSpace=wrap;html=1;aspect=fixed;fontSize=30;" vertex="1" parent="1">
                    <mxGeometry x="415" y="80" width="60" height="60" as="geometry"/>
                </mxCell>
                <mxCell id="37" style="edgeStyle=none;html=0;exitX=1;exitY=0.5;exitDx=0;exitDy=0;entryX=0;entryY=0.5;entryDx=0;entryDy=0;labelBackgroundColor=none;fontSize=30;fontColor=default;endArrow=none;endFill=0;endSize=15;strokeColor=default;" edge="1" parent="1" source="32" target="36">
                    <mxGeometry relative="1" as="geometry"/>
                </mxCell>
                <mxCell id="32" value="p" style="ellipse;whiteSpace=wrap;html=1;aspect=fixed;fontSize=30;strokeColor=#009900;" vertex="1" parent="1">
                    <mxGeometry x="200" y="70" width="80" height="80" as="geometry"/>
                </mxCell>
                <mxCell id="33" value="2" style="ellipse;whiteSpace=wrap;html=1;aspect=fixed;fontSize=30;strokeColor=#009900;" vertex="1" parent="1">
                    <mxGeometry x="405" y="70" width="80" height="80" as="geometry"/>
                </mxCell>
                <mxCell id="34" value="q" style="ellipse;whiteSpace=wrap;html=1;aspect=fixed;fontSize=30;strokeColor=#009900;" vertex="1" parent="1">
                    <mxGeometry x="415" y="80" width="60" height="60" as="geometry"/>
                </mxCell>
                <mxCell id="35" style="edgeStyle=none;html=1;entryX=0;entryY=0.5;entryDx=0;entryDy=0;endSize=15;endArrow=block;endFill=1;" edge="1" parent="1" target="32">
                    <mxGeometry relative="1" as="geometry">
                        <mxPoint x="139.9999999999999" y="110" as="sourcePoint"/>
                        <mxPoint x="180" y="109.71000000000004" as="targetPoint"/>
                    </mxGeometry>
                </mxCell>
                <mxCell id="38" style="edgeStyle=none;html=0;exitX=1;exitY=0.5;exitDx=0;exitDy=0;entryX=0;entryY=0.5;entryDx=0;entryDy=0;labelBackgroundColor=none;fontSize=30;fontColor=default;endArrow=block;endFill=1;endSize=15;strokeColor=default;" edge="1" parent="1" source="36" target="33">
                    <mxGeometry relative="1" as="geometry"/>
                </mxCell>
                <mxCell id="36" value="R" style="text;html=1;strokeColor=none;fillColor=none;align=center;verticalAlign=middle;whiteSpace=wrap;rounded=0;fontSize=30;fontColor=default;" vertex="1" parent="1">
                    <mxGeometry x="320" y="95" width="30" height="30" as="geometry"/>
                </mxCell>
                <mxCell id="61" value="1" style="ellipse;whiteSpace=wrap;html=1;aspect=fixed;fontSize=30;" vertex="1" parent="1">
                    <mxGeometry x="778.0799999999999" y="610" width="80" height="80" as="geometry"/>
                </mxCell>
                <mxCell id="62" value="2" style="ellipse;whiteSpace=wrap;html=1;aspect=fixed;fontSize=30;" vertex="1" parent="1">
                    <mxGeometry x="958.0799999999999" y="610" width="80" height="80" as="geometry"/>
                </mxCell>
                <mxCell id="63" value="2" style="ellipse;whiteSpace=wrap;html=1;aspect=fixed;fontSize=30;" vertex="1" parent="1">
                    <mxGeometry x="968.0799999999999" y="620" width="60" height="60" as="geometry"/>
                </mxCell>
                <mxCell id="64" style="edgeStyle=none;html=0;exitX=1;exitY=0.5;exitDx=0;exitDy=0;entryX=0;entryY=0.5;entryDx=0;entryDy=0;labelBackgroundColor=none;fontSize=30;fontColor=default;endArrow=none;endFill=0;endSize=15;strokeColor=default;" edge="1" parent="1" source="65" target="70">
                    <mxGeometry relative="1" as="geometry"/>
                </mxCell>
                <mxCell id="65" value="p" style="ellipse;whiteSpace=wrap;html=1;aspect=fixed;fontSize=30;strokeColor=#009900;" vertex="1" parent="1">
                    <mxGeometry x="778.0799999999999" y="610" width="80" height="80" as="geometry"/>
                </mxCell>
                <mxCell id="82" style="edgeStyle=none;html=0;exitX=1;exitY=0.5;exitDx=0;exitDy=0;entryX=0;entryY=0.5;entryDx=0;entryDy=0;labelBackgroundColor=none;fontSize=30;fontColor=default;endArrow=block;endFill=1;endSize=15;strokeColor=default;" edge="1" parent="1" source="66" target="76">
                    <mxGeometry relative="1" as="geometry"/>
                </mxCell>
                <mxCell id="83" value="Îµ" style="edgeLabel;html=1;align=center;verticalAlign=middle;resizable=0;points=[];fontSize=30;fontColor=default;" vertex="1" connectable="0" parent="82">
                    <mxGeometry x="-0.4308" y="-2" relative="1" as="geometry">
                        <mxPoint x="5" y="-22" as="offset"/>
                    </mxGeometry>
                </mxCell>
                <mxCell id="66" value="q" style="ellipse;whiteSpace=wrap;html=1;aspect=fixed;fontSize=30;strokeColor=#009900;" vertex="1" parent="1">
                    <mxGeometry x="958.0799999999999" y="610" width="80" height="80" as="geometry"/>
                </mxCell>
                <mxCell id="68" style="edgeStyle=none;html=1;entryX=0;entryY=0.5;entryDx=0;entryDy=0;endSize=15;endArrow=block;endFill=1;" edge="1" parent="1" target="65">
                    <mxGeometry relative="1" as="geometry">
                        <mxPoint x="734.9999999999999" y="650" as="sourcePoint"/>
                        <mxPoint x="775" y="649.71" as="targetPoint"/>
                    </mxGeometry>
                </mxCell>
                <mxCell id="69" style="edgeStyle=none;html=0;exitX=1;exitY=0.5;exitDx=0;exitDy=0;entryX=0;entryY=0.5;entryDx=0;entryDy=0;labelBackgroundColor=none;fontSize=30;fontColor=default;endArrow=block;endFill=1;endSize=15;strokeColor=default;" edge="1" parent="1" source="70" target="66">
                    <mxGeometry relative="1" as="geometry"/>
                </mxCell>
                <mxCell id="70" value="R1" style="text;html=1;strokeColor=none;fillColor=none;align=center;verticalAlign=middle;whiteSpace=wrap;rounded=0;fontSize=30;fontColor=default;" vertex="1" parent="1">
                    <mxGeometry x="888.0799999999999" y="635" width="30" height="30" as="geometry"/>
                </mxCell>
                <mxCell id="72" value="1" style="ellipse;whiteSpace=wrap;html=1;aspect=fixed;fontSize=30;" vertex="1" parent="1">
                    <mxGeometry x="1115" y="610" width="80" height="80" as="geometry"/>
                </mxCell>
                <mxCell id="73" value="2" style="ellipse;whiteSpace=wrap;html=1;aspect=fixed;fontSize=30;" vertex="1" parent="1">
                    <mxGeometry x="1295" y="610" width="80" height="80" as="geometry"/>
                </mxCell>
                <mxCell id="74" value="2" style="ellipse;whiteSpace=wrap;html=1;aspect=fixed;fontSize=30;" vertex="1" parent="1">
                    <mxGeometry x="1305" y="620" width="60" height="60" as="geometry"/>
                </mxCell>
                <mxCell id="75" style="edgeStyle=none;html=0;exitX=1;exitY=0.5;exitDx=0;exitDy=0;entryX=0;entryY=0.5;entryDx=0;entryDy=0;labelBackgroundColor=none;fontSize=30;fontColor=default;endArrow=none;endFill=0;endSize=15;strokeColor=default;" edge="1" parent="1" source="76" target="80">
                    <mxGeometry relative="1" as="geometry"/>
                </mxCell>
                <mxCell id="76" value="r" style="ellipse;whiteSpace=wrap;html=1;aspect=fixed;fontSize=30;strokeColor=#990000;" vertex="1" parent="1">
                    <mxGeometry x="1115" y="610" width="80" height="80" as="geometry"/>
                </mxCell>
                <mxCell id="77" value="2" style="ellipse;whiteSpace=wrap;html=1;aspect=fixed;fontSize=30;strokeColor=#990000;" vertex="1" parent="1">
                    <mxGeometry x="1295" y="610" width="80" height="80" as="geometry"/>
                </mxCell>
                <mxCell id="78" value="s" style="ellipse;whiteSpace=wrap;html=1;aspect=fixed;fontSize=30;strokeColor=#990000;" vertex="1" parent="1">
                    <mxGeometry x="1305" y="620" width="60" height="60" as="geometry"/>
                </mxCell>
                <mxCell id="79" style="edgeStyle=none;html=0;exitX=1;exitY=0.5;exitDx=0;exitDy=0;entryX=0;entryY=0.5;entryDx=0;entryDy=0;labelBackgroundColor=none;fontSize=30;fontColor=default;endArrow=block;endFill=1;endSize=15;strokeColor=default;" edge="1" parent="1" source="80" target="77">
                    <mxGeometry relative="1" as="geometry"/>
                </mxCell>
                <mxCell id="80" value="R2" style="text;html=1;strokeColor=none;fillColor=none;align=center;verticalAlign=middle;whiteSpace=wrap;rounded=0;fontSize=30;fontColor=default;" vertex="1" parent="1">
                    <mxGeometry x="1225" y="635" width="30" height="30" as="geometry"/>
                </mxCell>
                <mxCell id="84" value="" style="rounded=1;whiteSpace=wrap;html=1;fontSize=30;fontColor=default;fillColor=none;dashed=1;strokeColor=#990000;" vertex="1" parent="1">
                    <mxGeometry x="945" y="740" width="300" height="120" as="geometry"/>
                </mxCell>
                <mxCell id="85" value="" style="rounded=1;whiteSpace=wrap;html=1;fontSize=30;fontColor=default;fillColor=none;dashed=1;strokeColor=#009900;" vertex="1" parent="1">
                    <mxGeometry x="761.16" y="730" width="300" height="120" as="geometry"/>
                </mxCell>
                <mxCell id="86" value="1" style="ellipse;whiteSpace=wrap;html=1;aspect=fixed;fontSize=30;" vertex="1" parent="1">
                    <mxGeometry x="791.16" y="760" width="80" height="80" as="geometry"/>
                </mxCell>
                <mxCell id="87" value="2" style="ellipse;whiteSpace=wrap;html=1;aspect=fixed;fontSize=30;" vertex="1" parent="1">
                    <mxGeometry x="971.16" y="760" width="80" height="80" as="geometry"/>
                </mxCell>
                <mxCell id="88" value="2" style="ellipse;whiteSpace=wrap;html=1;aspect=fixed;fontSize=30;" vertex="1" parent="1">
                    <mxGeometry x="981.16" y="770" width="60" height="60" as="geometry"/>
                </mxCell>
                <mxCell id="89" style="edgeStyle=none;html=0;exitX=1;exitY=0.5;exitDx=0;exitDy=0;entryX=0;entryY=0.5;entryDx=0;entryDy=0;labelBackgroundColor=none;fontSize=30;fontColor=default;endArrow=none;endFill=0;endSize=15;strokeColor=default;" edge="1" parent="1" source="90" target="96">
                    <mxGeometry relative="1" as="geometry"/>
                </mxCell>
                <mxCell id="90" value="p" style="ellipse;whiteSpace=wrap;html=1;aspect=fixed;fontSize=30;strokeColor=#009900;" vertex="1" parent="1">
                    <mxGeometry x="791.16" y="760" width="80" height="80" as="geometry"/>
                </mxCell>
                <mxCell id="93" value="qr" style="ellipse;whiteSpace=wrap;html=1;aspect=fixed;fontSize=30;strokeColor=#000000;" vertex="1" parent="1">
                    <mxGeometry x="971.16" y="760" width="80" height="80" as="geometry"/>
                </mxCell>
                <mxCell id="94" style="edgeStyle=none;html=1;entryX=0;entryY=0.5;entryDx=0;entryDy=0;endSize=15;endArrow=block;endFill=1;" edge="1" parent="1" target="90">
                    <mxGeometry relative="1" as="geometry">
                        <mxPoint x="748.0799999999999" y="800" as="sourcePoint"/>
                        <mxPoint x="788.08" y="799.71" as="targetPoint"/>
                    </mxGeometry>
                </mxCell>
                <mxCell id="95" style="edgeStyle=none;html=0;exitX=1;exitY=0.5;exitDx=0;exitDy=0;entryX=0;entryY=0.5;entryDx=0;entryDy=0;labelBackgroundColor=none;fontSize=30;fontColor=default;endArrow=block;endFill=1;endSize=15;strokeColor=default;" edge="1" parent="1" source="96" target="93">
                    <mxGeometry relative="1" as="geometry"/>
                </mxCell>
                <mxCell id="96" value="R1" style="text;html=1;strokeColor=none;fillColor=none;align=center;verticalAlign=middle;whiteSpace=wrap;rounded=0;fontSize=30;fontColor=default;" vertex="1" parent="1">
                    <mxGeometry x="901.16" y="785" width="30" height="30" as="geometry"/>
                </mxCell>
                <mxCell id="98" value="2" style="ellipse;whiteSpace=wrap;html=1;aspect=fixed;fontSize=30;" vertex="1" parent="1">
                    <mxGeometry x="1145" y="760" width="80" height="80" as="geometry"/>
                </mxCell>
                <mxCell id="99" value="2" style="ellipse;whiteSpace=wrap;html=1;aspect=fixed;fontSize=30;" vertex="1" parent="1">
                    <mxGeometry x="1155" y="770" width="60" height="60" as="geometry"/>
                </mxCell>
                <mxCell id="100" style="edgeStyle=none;html=0;exitX=1;exitY=0.5;exitDx=0;exitDy=0;entryX=0;entryY=0.5;entryDx=0;entryDy=0;labelBackgroundColor=none;fontSize=30;fontColor=default;endArrow=none;endFill=0;endSize=15;strokeColor=default;" edge="1" parent="1" source="93" target="105">
                    <mxGeometry relative="1" as="geometry">
                        <mxPoint x="1208.0800000000033" y="800" as="sourcePoint"/>
                    </mxGeometry>
                </mxCell>
                <mxCell id="102" value="2" style="ellipse;whiteSpace=wrap;html=1;aspect=fixed;fontSize=30;strokeColor=#990000;" vertex="1" parent="1">
                    <mxGeometry x="1145" y="760" width="80" height="80" as="geometry"/>
                </mxCell>
                <mxCell id="103" value="s" style="ellipse;whiteSpace=wrap;html=1;aspect=fixed;fontSize=30;strokeColor=#990000;" vertex="1" parent="1">
                    <mxGeometry x="1155" y="770" width="60" height="60" as="geometry"/>
                </mxCell>
                <mxCell id="104" style="edgeStyle=none;html=0;exitX=1;exitY=0.5;exitDx=0;exitDy=0;entryX=0;entryY=0.5;entryDx=0;entryDy=0;labelBackgroundColor=none;fontSize=30;fontColor=default;endArrow=block;endFill=1;endSize=15;strokeColor=default;" edge="1" parent="1" source="105" target="102">
                    <mxGeometry relative="1" as="geometry"/>
                </mxCell>
                <mxCell id="105" value="R2" style="text;html=1;strokeColor=none;fillColor=none;align=center;verticalAlign=middle;whiteSpace=wrap;rounded=0;fontSize=30;fontColor=default;" vertex="1" parent="1">
                    <mxGeometry x="1075" y="785" width="30" height="30" as="geometry"/>
                </mxCell>
                <mxCell id="133" value="Îµ" style="edgeStyle=none;html=0;exitX=1;exitY=0;exitDx=0;exitDy=0;entryX=0;entryY=0.5;entryDx=0;entryDy=0;labelBackgroundColor=none;fontSize=30;fontColor=default;endArrow=block;endFill=1;endSize=15;strokeColor=default;" edge="1" parent="1" source="106" target="111">
                    <mxGeometry x="-0.271" y="17" relative="1" as="geometry">
                        <mxPoint as="offset"/>
                    </mxGeometry>
                </mxCell>
                <mxCell id="134" value="Îµ" style="edgeStyle=none;html=0;exitX=1;exitY=1;exitDx=0;exitDy=0;entryX=0;entryY=0.5;entryDx=0;entryDy=0;labelBackgroundColor=none;fontSize=30;fontColor=default;endArrow=block;endFill=1;endSize=15;strokeColor=default;" edge="1" parent="1" source="106" target="122">
                    <mxGeometry x="-0.2961" y="-17" relative="1" as="geometry">
                        <mxPoint as="offset"/>
                    </mxGeometry>
                </mxCell>
                <mxCell id="106" value="" style="ellipse;whiteSpace=wrap;html=1;aspect=fixed;fontSize=30;strokeColor=#004C99;" vertex="1" parent="1">
                    <mxGeometry x="120" y="650" width="80" height="80" as="geometry"/>
                </mxCell>
                <mxCell id="107" value="1" style="ellipse;whiteSpace=wrap;html=1;aspect=fixed;fontSize=30;" vertex="1" parent="1">
                    <mxGeometry x="250" y="570" width="80" height="80" as="geometry"/>
                </mxCell>
                <mxCell id="108" value="2" style="ellipse;whiteSpace=wrap;html=1;aspect=fixed;fontSize=30;" vertex="1" parent="1">
                    <mxGeometry x="430" y="570" width="80" height="80" as="geometry"/>
                </mxCell>
                <mxCell id="109" value="2" style="ellipse;whiteSpace=wrap;html=1;aspect=fixed;fontSize=30;" vertex="1" parent="1">
                    <mxGeometry x="440" y="580" width="60" height="60" as="geometry"/>
                </mxCell>
                <mxCell id="110" style="edgeStyle=none;html=0;exitX=1;exitY=0.5;exitDx=0;exitDy=0;entryX=0;entryY=0.5;entryDx=0;entryDy=0;labelBackgroundColor=none;fontSize=30;fontColor=default;endArrow=none;endFill=0;endSize=15;strokeColor=default;" edge="1" parent="1" source="111" target="115">
                    <mxGeometry relative="1" as="geometry"/>
                </mxCell>
                <mxCell id="111" value="p" style="ellipse;whiteSpace=wrap;html=1;aspect=fixed;fontSize=30;strokeColor=#009900;" vertex="1" parent="1">
                    <mxGeometry x="250" y="570" width="80" height="80" as="geometry"/>
                </mxCell>
                <mxCell id="136" value="Îµ" style="edgeStyle=none;html=0;exitX=1;exitY=0.5;exitDx=0;exitDy=0;entryX=0;entryY=0;entryDx=0;entryDy=0;labelBackgroundColor=none;fontSize=30;fontColor=default;endArrow=block;endFill=1;endSize=15;strokeColor=default;" edge="1" parent="1" source="112" target="130">
                    <mxGeometry x="-0.2385" y="26" relative="1" as="geometry">
                        <mxPoint as="offset"/>
                    </mxGeometry>
                </mxCell>
                <mxCell id="112" value="q" style="ellipse;whiteSpace=wrap;html=1;aspect=fixed;fontSize=30;strokeColor=#009900;" vertex="1" parent="1">
                    <mxGeometry x="430" y="570" width="80" height="80" as="geometry"/>
                </mxCell>
                <mxCell id="114" style="edgeStyle=none;html=0;exitX=1;exitY=0.5;exitDx=0;exitDy=0;entryX=0;entryY=0.5;entryDx=0;entryDy=0;labelBackgroundColor=none;fontSize=30;fontColor=default;endArrow=block;endFill=1;endSize=15;strokeColor=default;" edge="1" parent="1" source="115" target="112">
                    <mxGeometry relative="1" as="geometry"/>
                </mxCell>
                <mxCell id="115" value="R1" style="text;html=1;strokeColor=none;fillColor=none;align=center;verticalAlign=middle;whiteSpace=wrap;rounded=0;fontSize=30;fontColor=default;" vertex="1" parent="1">
                    <mxGeometry x="360" y="595" width="30" height="30" as="geometry"/>
                </mxCell>
                <mxCell id="117" value="" style="rounded=1;whiteSpace=wrap;html=1;fontSize=30;fontColor=default;fillColor=none;dashed=1;strokeColor=#990000;" vertex="1" parent="1">
                    <mxGeometry x="217.5" y="710" width="322.5" height="110" as="geometry"/>
                </mxCell>
                <mxCell id="118" value="1" style="ellipse;whiteSpace=wrap;html=1;aspect=fixed;fontSize=30;" vertex="1" parent="1">
                    <mxGeometry x="252.5" y="730" width="80" height="80" as="geometry"/>
                </mxCell>
                <mxCell id="119" value="2" style="ellipse;whiteSpace=wrap;html=1;aspect=fixed;fontSize=30;" vertex="1" parent="1">
                    <mxGeometry x="432.5" y="730" width="80" height="80" as="geometry"/>
                </mxCell>
                <mxCell id="120" value="2" style="ellipse;whiteSpace=wrap;html=1;aspect=fixed;fontSize=30;" vertex="1" parent="1">
                    <mxGeometry x="442.5" y="740" width="60" height="60" as="geometry"/>
                </mxCell>
                <mxCell id="121" style="edgeStyle=none;html=0;exitX=1;exitY=0.5;exitDx=0;exitDy=0;entryX=0;entryY=0.5;entryDx=0;entryDy=0;labelBackgroundColor=none;fontSize=30;fontColor=default;endArrow=none;endFill=0;endSize=15;strokeColor=default;" edge="1" parent="1" source="122" target="126">
                    <mxGeometry relative="1" as="geometry"/>
                </mxCell>
                <mxCell id="122" value="r" style="ellipse;whiteSpace=wrap;html=1;aspect=fixed;fontSize=30;strokeColor=#990000;" vertex="1" parent="1">
                    <mxGeometry x="252.5" y="730" width="80" height="80" as="geometry"/>
                </mxCell>
                <mxCell id="135" value="Îµ" style="edgeStyle=none;html=0;exitX=1;exitY=0.5;exitDx=0;exitDy=0;labelBackgroundColor=none;fontSize=30;fontColor=default;endArrow=block;endFill=1;endSize=15;strokeColor=default;entryX=0;entryY=1;entryDx=0;entryDy=0;" edge="1" parent="1" source="123" target="130">
                    <mxGeometry x="-0.1141" y="-17" relative="1" as="geometry">
                        <mxPoint x="590" y="760" as="targetPoint"/>
                        <mxPoint as="offset"/>
                    </mxGeometry>
                </mxCell>
                <mxCell id="123" value="s" style="ellipse;whiteSpace=wrap;html=1;aspect=fixed;fontSize=30;strokeColor=#990000;" vertex="1" parent="1">
                    <mxGeometry x="432.5" y="730" width="80" height="80" as="geometry"/>
                </mxCell>
                <mxCell id="125" style="edgeStyle=none;html=0;exitX=1;exitY=0.5;exitDx=0;exitDy=0;entryX=0;entryY=0.5;entryDx=0;entryDy=0;labelBackgroundColor=none;fontSize=30;fontColor=default;endArrow=block;endFill=1;endSize=15;strokeColor=default;" edge="1" parent="1" source="126" target="123">
                    <mxGeometry relative="1" as="geometry"/>
                </mxCell>
                <mxCell id="126" value="R2" style="text;html=1;strokeColor=none;fillColor=none;align=center;verticalAlign=middle;whiteSpace=wrap;rounded=0;fontSize=30;fontColor=default;" vertex="1" parent="1">
                    <mxGeometry x="362.5" y="755" width="30" height="30" as="geometry"/>
                </mxCell>
                <mxCell id="128" value="2" style="ellipse;whiteSpace=wrap;html=1;aspect=fixed;fontSize=30;" vertex="1" parent="1">
                    <mxGeometry x="560" y="650" width="80" height="80" as="geometry"/>
                </mxCell>
                <mxCell id="129" value="2" style="ellipse;whiteSpace=wrap;html=1;aspect=fixed;fontSize=30;" vertex="1" parent="1">
                    <mxGeometry x="570" y="660" width="60" height="60" as="geometry"/>
                </mxCell>
                <mxCell id="130" value="2" style="ellipse;whiteSpace=wrap;html=1;aspect=fixed;fontSize=30;strokeColor=#004C99;" vertex="1" parent="1">
                    <mxGeometry x="560" y="650" width="80" height="80" as="geometry"/>
                </mxCell>
                <mxCell id="131" value="" style="ellipse;whiteSpace=wrap;html=1;aspect=fixed;fontSize=30;strokeColor=#004C99;" vertex="1" parent="1">
                    <mxGeometry x="570" y="660" width="60" height="60" as="geometry"/>
                </mxCell>
                <mxCell id="132" style="edgeStyle=none;html=1;endSize=15;endArrow=block;endFill=1;entryX=0;entryY=0.5;entryDx=0;entryDy=0;" edge="1" parent="1" target="106">
                    <mxGeometry relative="1" as="geometry">
                        <mxPoint x="60" y="690" as="sourcePoint"/>
                        <mxPoint x="70" y="730" as="targetPoint"/>
                    </mxGeometry>
                </mxCell>
                <mxCell id="137" value="" style="rounded=1;whiteSpace=wrap;html=1;fontSize=30;fontColor=default;fillColor=none;dashed=1;strokeColor=#009900;" vertex="1" parent="1">
                    <mxGeometry x="226.16000000000003" y="255" width="320" height="175" as="geometry"/>
                </mxCell>
                <mxCell id="138" style="edgeStyle=none;html=0;exitX=1;exitY=0.5;exitDx=0;exitDy=0;entryX=0;entryY=0.5;entryDx=0;entryDy=0;labelBackgroundColor=none;fontSize=30;fontColor=default;endArrow=block;endFill=1;endSize=15;strokeColor=default;" edge="1" parent="1" source="140" target="145">
                    <mxGeometry relative="1" as="geometry"/>
                </mxCell>
                <mxCell id="140" value="" style="ellipse;whiteSpace=wrap;html=1;aspect=fixed;fontSize=30;strokeColor=#004C99;" vertex="1" parent="1">
                    <mxGeometry x="110" y="275" width="80" height="80" as="geometry"/>
                </mxCell>
                <mxCell id="141" value="1" style="ellipse;whiteSpace=wrap;html=1;aspect=fixed;fontSize=30;" vertex="1" parent="1">
                    <mxGeometry x="256.15999999999997" y="275" width="80" height="80" as="geometry"/>
                </mxCell>
                <mxCell id="142" value="2" style="ellipse;whiteSpace=wrap;html=1;aspect=fixed;fontSize=30;" vertex="1" parent="1">
                    <mxGeometry x="436.15999999999997" y="275" width="80" height="80" as="geometry"/>
                </mxCell>
                <mxCell id="143" value="2" style="ellipse;whiteSpace=wrap;html=1;aspect=fixed;fontSize=30;" vertex="1" parent="1">
                    <mxGeometry x="446.15999999999997" y="285" width="60" height="60" as="geometry"/>
                </mxCell>
                <mxCell id="144" style="edgeStyle=none;html=0;exitX=1;exitY=0.5;exitDx=0;exitDy=0;entryX=0;entryY=0.5;entryDx=0;entryDy=0;labelBackgroundColor=none;fontSize=30;fontColor=default;endArrow=none;endFill=0;endSize=15;strokeColor=default;" edge="1" parent="1" source="145" target="149">
                    <mxGeometry relative="1" as="geometry"/>
                </mxCell>
                <mxCell id="145" value="p" style="ellipse;whiteSpace=wrap;html=1;aspect=fixed;fontSize=30;strokeColor=#009900;" vertex="1" parent="1">
                    <mxGeometry x="256.15999999999997" y="275" width="80" height="80" as="geometry"/>
                </mxCell>
                <mxCell id="146" value="Îµ" style="edgeStyle=none;html=0;exitX=1;exitY=0.5;exitDx=0;exitDy=0;entryX=0;entryY=0.5;entryDx=0;entryDy=0;labelBackgroundColor=none;fontSize=30;fontColor=default;endArrow=block;endFill=1;endSize=15;strokeColor=default;" edge="1" parent="1" source="147" target="162">
                    <mxGeometry x="-0.1556" y="25" relative="1" as="geometry">
                        <mxPoint as="offset"/>
                    </mxGeometry>
                </mxCell>
                <mxCell id="165" value="Îµ" style="edgeStyle=orthogonalEdgeStyle;html=0;exitX=0;exitY=1;exitDx=0;exitDy=0;entryX=1;entryY=1;entryDx=0;entryDy=0;labelBackgroundColor=none;fontSize=30;fontColor=default;endArrow=block;endFill=1;endSize=15;strokeColor=default;curved=1;" edge="1" parent="1" source="147" target="145">
                    <mxGeometry x="0.0569" y="10" relative="1" as="geometry">
                        <Array as="points">
                            <mxPoint x="448" y="390"/>
                            <mxPoint x="324" y="390"/>
                        </Array>
                        <mxPoint as="offset"/>
                    </mxGeometry>
                </mxCell>
                <mxCell id="147" value="q" style="ellipse;whiteSpace=wrap;html=1;aspect=fixed;fontSize=30;strokeColor=#009900;" vertex="1" parent="1">
                    <mxGeometry x="436.15999999999997" y="275" width="80" height="80" as="geometry"/>
                </mxCell>
                <mxCell id="148" style="edgeStyle=none;html=0;exitX=1;exitY=0.5;exitDx=0;exitDy=0;entryX=0;entryY=0.5;entryDx=0;entryDy=0;labelBackgroundColor=none;fontSize=30;fontColor=default;endArrow=block;endFill=1;endSize=15;strokeColor=default;" edge="1" parent="1" source="149" target="147">
                    <mxGeometry relative="1" as="geometry"/>
                </mxCell>
                <mxCell id="149" value="R" style="text;html=1;strokeColor=none;fillColor=none;align=center;verticalAlign=middle;whiteSpace=wrap;rounded=0;fontSize=30;fontColor=default;" vertex="1" parent="1">
                    <mxGeometry x="366.15999999999997" y="300" width="30" height="30" as="geometry"/>
                </mxCell>
                <mxCell id="160" value="2" style="ellipse;whiteSpace=wrap;html=1;aspect=fixed;fontSize=30;" vertex="1" parent="1">
                    <mxGeometry x="589.9999999999999" y="275" width="80" height="80" as="geometry"/>
                </mxCell>
                <mxCell id="161" value="2" style="ellipse;whiteSpace=wrap;html=1;aspect=fixed;fontSize=30;" vertex="1" parent="1">
                    <mxGeometry x="599.9999999999999" y="285" width="60" height="60" as="geometry"/>
                </mxCell>
                <mxCell id="162" value="2" style="ellipse;whiteSpace=wrap;html=1;aspect=fixed;fontSize=30;strokeColor=#004C99;" vertex="1" parent="1">
                    <mxGeometry x="589.9999999999999" y="275" width="80" height="80" as="geometry"/>
                </mxCell>
                <mxCell id="163" value="" style="ellipse;whiteSpace=wrap;html=1;aspect=fixed;fontSize=30;strokeColor=#004C99;" vertex="1" parent="1">
                    <mxGeometry x="599.9999999999999" y="285" width="60" height="60" as="geometry"/>
                </mxCell>
                <mxCell id="164" style="edgeStyle=none;html=1;endSize=15;endArrow=block;endFill=1;entryX=0;entryY=0.5;entryDx=0;entryDy=0;" edge="1" parent="1" target="140">
                    <mxGeometry relative="1" as="geometry">
                        <mxPoint x="50" y="315" as="sourcePoint"/>
                        <mxPoint x="39.999999999999986" y="350" as="targetPoint"/>
                    </mxGeometry>
                </mxCell>
                <mxCell id="169" value="" style="rounded=1;whiteSpace=wrap;html=1;fontSize=30;fontColor=default;fillColor=none;dashed=1;strokeColor=#009900;" vertex="1" parent="1">
                    <mxGeometry x="946.1600000000001" y="255" width="320" height="175" as="geometry"/>
                </mxCell>
                <mxCell id="170" style="edgeStyle=none;html=0;exitX=1;exitY=0.5;exitDx=0;exitDy=0;entryX=0;entryY=0.5;entryDx=0;entryDy=0;labelBackgroundColor=none;fontSize=30;fontColor=default;endArrow=block;endFill=1;endSize=15;strokeColor=default;" edge="1" parent="1" source="171" target="176">
                    <mxGeometry relative="1" as="geometry"/>
                </mxCell>
                <mxCell id="187" value="Îµ" style="edgeStyle=orthogonalEdgeStyle;curved=1;html=0;exitX=0.5;exitY=1;exitDx=0;exitDy=0;entryX=0.5;entryY=1;entryDx=0;entryDy=0;labelBackgroundColor=none;fontSize=30;fontColor=default;endArrow=block;endFill=1;endSize=15;strokeColor=default;" edge="1" parent="1" source="171" target="184">
                    <mxGeometry y="-10" relative="1" as="geometry">
                        <Array as="points">
                            <mxPoint x="870" y="460"/>
                            <mxPoint x="1350" y="460"/>
                        </Array>
                        <mxPoint as="offset"/>
                    </mxGeometry>
                </mxCell>
                <mxCell id="171" value="" style="ellipse;whiteSpace=wrap;html=1;aspect=fixed;fontSize=30;strokeColor=#004C99;" vertex="1" parent="1">
                    <mxGeometry x="830" y="275" width="80" height="80" as="geometry"/>
                </mxCell>
                <mxCell id="172" value="1" style="ellipse;whiteSpace=wrap;html=1;aspect=fixed;fontSize=30;" vertex="1" parent="1">
                    <mxGeometry x="976.16" y="275" width="80" height="80" as="geometry"/>
                </mxCell>
                <mxCell id="173" value="2" style="ellipse;whiteSpace=wrap;html=1;aspect=fixed;fontSize=30;" vertex="1" parent="1">
                    <mxGeometry x="1156.1599999999999" y="275" width="80" height="80" as="geometry"/>
                </mxCell>
                <mxCell id="174" value="2" style="ellipse;whiteSpace=wrap;html=1;aspect=fixed;fontSize=30;" vertex="1" parent="1">
                    <mxGeometry x="1166.1599999999999" y="285" width="60" height="60" as="geometry"/>
                </mxCell>
                <mxCell id="175" style="edgeStyle=none;html=0;exitX=1;exitY=0.5;exitDx=0;exitDy=0;entryX=0;entryY=0.5;entryDx=0;entryDy=0;labelBackgroundColor=none;fontSize=30;fontColor=default;endArrow=none;endFill=0;endSize=15;strokeColor=default;" edge="1" parent="1" source="176" target="181">
                    <mxGeometry relative="1" as="geometry"/>
                </mxCell>
                <mxCell id="176" value="p" style="ellipse;whiteSpace=wrap;html=1;aspect=fixed;fontSize=30;strokeColor=#009900;" vertex="1" parent="1">
                    <mxGeometry x="976.16" y="275" width="80" height="80" as="geometry"/>
                </mxCell>
                <mxCell id="177" value="Îµ" style="edgeStyle=none;html=0;exitX=1;exitY=0.5;exitDx=0;exitDy=0;entryX=0;entryY=0.5;entryDx=0;entryDy=0;labelBackgroundColor=none;fontSize=30;fontColor=default;endArrow=block;endFill=1;endSize=15;strokeColor=default;" edge="1" parent="1" source="179" target="184">
                    <mxGeometry x="-0.1556" y="25" relative="1" as="geometry">
                        <mxPoint as="offset"/>
                    </mxGeometry>
                </mxCell>
                <mxCell id="178" value="Îµ" style="edgeStyle=orthogonalEdgeStyle;html=0;exitX=0;exitY=1;exitDx=0;exitDy=0;entryX=1;entryY=1;entryDx=0;entryDy=0;labelBackgroundColor=none;fontSize=30;fontColor=default;endArrow=block;endFill=1;endSize=15;strokeColor=default;curved=1;" edge="1" parent="1" source="179" target="176">
                    <mxGeometry x="0.0569" y="10" relative="1" as="geometry">
                        <Array as="points">
                            <mxPoint x="1168" y="390"/>
                            <mxPoint x="1044" y="390"/>
                        </Array>
                        <mxPoint as="offset"/>
                    </mxGeometry>
                </mxCell>
                <mxCell id="179" value="q" style="ellipse;whiteSpace=wrap;html=1;aspect=fixed;fontSize=30;strokeColor=#009900;" vertex="1" parent="1">
                    <mxGeometry x="1156.1599999999999" y="275" width="80" height="80" as="geometry"/>
                </mxCell>
                <mxCell id="180" style="edgeStyle=none;html=0;exitX=1;exitY=0.5;exitDx=0;exitDy=0;entryX=0;entryY=0.5;entryDx=0;entryDy=0;labelBackgroundColor=none;fontSize=30;fontColor=default;endArrow=block;endFill=1;endSize=15;strokeColor=default;" edge="1" parent="1" source="181" target="179">
                    <mxGeometry relative="1" as="geometry"/>
                </mxCell>
                <mxCell id="181" value="R" style="text;html=1;strokeColor=none;fillColor=none;align=center;verticalAlign=middle;whiteSpace=wrap;rounded=0;fontSize=30;fontColor=default;" vertex="1" parent="1">
                    <mxGeometry x="1086.1599999999999" y="300" width="30" height="30" as="geometry"/>
                </mxCell>
                <mxCell id="182" value="2" style="ellipse;whiteSpace=wrap;html=1;aspect=fixed;fontSize=30;" vertex="1" parent="1">
                    <mxGeometry x="1310" y="275" width="80" height="80" as="geometry"/>
                </mxCell>
                <mxCell id="183" value="2" style="ellipse;whiteSpace=wrap;html=1;aspect=fixed;fontSize=30;" vertex="1" parent="1">
                    <mxGeometry x="1320" y="285" width="60" height="60" as="geometry"/>
                </mxCell>
                <mxCell id="184" value="2" style="ellipse;whiteSpace=wrap;html=1;aspect=fixed;fontSize=30;strokeColor=#004C99;" vertex="1" parent="1">
                    <mxGeometry x="1310" y="275" width="80" height="80" as="geometry"/>
                </mxCell>
                <mxCell id="185" value="" style="ellipse;whiteSpace=wrap;html=1;aspect=fixed;fontSize=30;strokeColor=#004C99;" vertex="1" parent="1">
                    <mxGeometry x="1320" y="285" width="60" height="60" as="geometry"/>
                </mxCell>
                <mxCell id="186" style="edgeStyle=none;html=1;endSize=15;endArrow=block;endFill=1;entryX=0;entryY=0.5;entryDx=0;entryDy=0;" edge="1" parent="1" target="171">
                    <mxGeometry relative="1" as="geometry">
                        <mxPoint x="770" y="315" as="sourcePoint"/>
                        <mxPoint x="760" y="350" as="targetPoint"/>
                    </mxGeometry>
                </mxCell>
                <mxCell id="199" value="R+" style="text;html=1;strokeColor=none;fillColor=none;align=center;verticalAlign=middle;whiteSpace=wrap;rounded=0;dashed=1;fontSize=40;fontColor=default;" vertex="1" parent="1">
                    <mxGeometry x="30" y="200" width="670" height="30" as="geometry"/>
                </mxCell>
                <mxCell id="200" value="R*" style="text;html=1;strokeColor=none;fillColor=none;align=center;verticalAlign=middle;whiteSpace=wrap;rounded=0;dashed=1;fontSize=40;fontColor=default;" vertex="1" parent="1">
                    <mxGeometry x="740" y="200" width="670" height="30" as="geometry"/>
                </mxCell>
                <mxCell id="201" value="R1|R2" style="text;html=1;strokeColor=none;fillColor=none;align=center;verticalAlign=middle;whiteSpace=wrap;rounded=0;dashed=1;fontSize=40;fontColor=default;" vertex="1" parent="1">
                    <mxGeometry x="40" y="510" width="630" height="30" as="geometry"/>
                </mxCell>
                <mxCell id="202" value="R1 R2" style="text;html=1;strokeColor=none;fillColor=none;align=center;verticalAlign=middle;whiteSpace=wrap;rounded=0;dashed=1;fontSize=40;fontColor=default;" vertex="1" parent="1">
                    <mxGeometry x="705" y="540" width="710" height="30" as="geometry"/>
                </mxCell>
                <mxCell id="203" value="(R)" style="text;html=1;strokeColor=none;fillColor=none;align=center;verticalAlign=middle;whiteSpace=wrap;rounded=0;dashed=1;fontSize=40;fontColor=default;" vertex="1" parent="1">
                    <mxGeometry x="271" y="30" width="144" height="30" as="geometry"/>
                </mxCell>
            </root>
        </mxGraphModel>
    </diagram>
</mxfile>